<svg width="80" height="80" viewBox="0 0 80 80" fill="none" xmlns="http://www.w3.org/2000/svg">
<rect x="3" y="3" width="74" height="74" rx="17" fill="white" stroke="white" stroke-width="6"/>
<g filter="url(#filter0_i_19_6353)">
<rect x="6" y="6" width="68" height="68" rx="14" fill="url(#paint0_linear_19_6353)" fill-opacity="0.41"/>
</g>
<path d="M9.78835 26.1193C9.17756 26.1193 8.63778 26.0142 8.16903 25.804C7.70313 25.5937 7.33807 25.304 7.07386 24.9347C6.80966 24.5653 6.67898 24.1449 6.68182 23.6733C6.67898 23.304 6.75426 22.9645 6.90767 22.6548C7.06392 22.3423 7.27557 22.0824 7.54261 21.875C7.80966 21.6648 8.10795 21.5312 8.4375 21.4744V21.4233C8.00284 21.3182 7.65483 21.0852 7.39347 20.7244C7.1321 20.3636 7.00284 19.9489 7.00568 19.4801C7.00284 19.0341 7.12074 18.6364 7.35938 18.2869C7.60085 17.9347 7.93182 17.6577 8.35227 17.456C8.77273 17.2543 9.25142 17.1534 9.78835 17.1534C10.3196 17.1534 10.794 17.2557 11.2116 17.4602C11.6321 17.6619 11.9631 17.9389 12.2045 18.2912C12.446 18.6406 12.5682 19.0369 12.571 19.4801C12.5682 19.9489 12.4347 20.3636 12.1705 20.7244C11.9063 21.0852 11.5625 21.3182 11.1392 21.4233V21.4744C11.4659 21.5312 11.7599 21.6648 12.0213 21.875C12.2855 22.0824 12.4957 22.3423 12.652 22.6548C12.8111 22.9645 12.892 23.304 12.8949 23.6733C12.892 24.1449 12.7585 24.5653 12.4943 24.9347C12.2301 25.304 11.8636 25.5937 11.3949 25.804C10.929 26.0142 10.3935 26.1193 9.78835 26.1193ZM9.78835 25.0412C10.1491 25.0412 10.4616 24.9815 10.7259 24.8622C10.9901 24.7401 11.1946 24.571 11.3395 24.3551C11.4844 24.1364 11.5582 23.8807 11.5611 23.5881C11.5582 23.2841 11.4787 23.0156 11.3224 22.7827C11.169 22.5497 10.9602 22.3665 10.696 22.233C10.4318 22.0994 10.1293 22.0327 9.78835 22.0327C9.4446 22.0327 9.1392 22.0994 8.87216 22.233C8.60511 22.3665 8.39489 22.5497 8.24148 22.7827C8.08807 23.0156 8.01278 23.2841 8.01562 23.5881C8.01278 23.8807 8.08239 24.1364 8.22443 24.3551C8.36932 24.571 8.57528 24.7401 8.84233 24.8622C9.10938 24.9815 9.42472 25.0412 9.78835 25.0412ZM9.78835 20.9801C10.0781 20.9801 10.3352 20.9219 10.5597 20.8054C10.7841 20.6889 10.9602 20.527 11.0881 20.3196C11.2188 20.1122 11.2855 19.8693 11.2884 19.5909C11.2855 19.3182 11.2202 19.0795 11.0923 18.875C10.9673 18.6705 10.7926 18.5128 10.5682 18.402C10.3438 18.2884 10.0838 18.2315 9.78835 18.2315C9.48722 18.2315 9.22301 18.2884 8.99574 18.402C8.77131 18.5128 8.59659 18.6705 8.47159 18.875C8.34659 19.0795 8.28551 19.3182 8.28835 19.5909C8.28551 19.8693 8.34801 20.1122 8.47585 20.3196C8.60369 20.527 8.77983 20.6889 9.00426 20.8054C9.23153 20.9219 9.4929 20.9801 9.78835 20.9801ZM13.9415 26V25.0455L16.8946 21.9858C17.21 21.6534 17.4699 21.3622 17.6745 21.1122C17.8819 20.8594 18.0367 20.6193 18.139 20.392C18.2412 20.1648 18.2924 19.9233 18.2924 19.6676C18.2924 19.3778 18.2242 19.1278 18.0878 18.9176C17.9515 18.7045 17.7654 18.5412 17.5296 18.4276C17.2938 18.3111 17.0282 18.2528 16.7327 18.2528C16.4202 18.2528 16.1475 18.3168 15.9145 18.4446C15.6816 18.5724 15.5026 18.7528 15.3776 18.9858C15.2526 19.2187 15.1901 19.4915 15.1901 19.804H13.933C13.933 19.2727 14.0552 18.8082 14.2995 18.4105C14.5438 18.0128 14.879 17.7045 15.3052 17.4858C15.7313 17.2642 16.2157 17.1534 16.7583 17.1534C17.3066 17.1534 17.7895 17.2628 18.2071 17.4815C18.6276 17.6974 18.9557 17.9929 19.1915 18.3679C19.4273 18.7401 19.5452 19.1605 19.5452 19.6293C19.5452 19.9531 19.4841 20.2699 19.362 20.5795C19.2427 20.8892 19.0338 21.2344 18.7356 21.6151C18.4373 21.9929 18.0225 22.4517 17.4912 22.9915L15.7569 24.8068V24.8707H19.6858V26H13.9415ZM23.8592 26.1193C23.274 26.1193 22.7513 26.0185 22.2911 25.8168C21.8337 25.6151 21.4715 25.3352 21.2044 24.9773C20.9402 24.6165 20.7982 24.1989 20.7783 23.7244H22.1163C22.1334 23.983 22.22 24.2074 22.3763 24.3977C22.5354 24.5852 22.7428 24.7301 22.9985 24.8324C23.2541 24.9347 23.5382 24.9858 23.8507 24.9858C24.1945 24.9858 24.4985 24.9261 24.7627 24.8068C25.0297 24.6875 25.2385 24.5213 25.3891 24.3082C25.5396 24.0923 25.6149 23.8438 25.6149 23.5625C25.6149 23.2699 25.5396 23.0128 25.3891 22.7912C25.2413 22.5668 25.024 22.3906 24.7371 22.2628C24.453 22.1349 24.1092 22.071 23.7058 22.071H22.9686V20.9972H23.7058C24.0297 20.9972 24.3138 20.9389 24.5581 20.8224C24.8053 20.706 24.9985 20.544 25.1377 20.3366C25.2769 20.1264 25.3465 19.8807 25.3465 19.5994C25.3465 19.3295 25.2854 19.0952 25.1632 18.8963C25.0439 18.6946 24.8735 18.5369 24.6519 18.4233C24.4331 18.3097 24.1746 18.2528 23.8763 18.2528C23.5922 18.2528 23.3266 18.3054 23.0794 18.4105C22.8351 18.5128 22.6362 18.6605 22.4828 18.8537C22.3294 19.044 22.247 19.2727 22.2357 19.5398H20.9615C20.9757 19.0682 21.1149 18.6534 21.3791 18.2955C21.6462 17.9375 21.9985 17.6577 22.436 17.456C22.8735 17.2543 23.3592 17.1534 23.8933 17.1534C24.453 17.1534 24.936 17.2628 25.3422 17.4815C25.7513 17.6974 26.0666 17.9858 26.2882 18.3466C26.5127 18.7074 26.6235 19.1023 26.6206 19.5312C26.6235 20.0199 26.4871 20.4347 26.2115 20.7756C25.9388 21.1165 25.5752 21.3452 25.1206 21.4616V21.5298C25.7002 21.6179 26.149 21.848 26.4672 22.2202C26.7882 22.5923 26.9473 23.054 26.9445 23.6051C26.9473 24.0852 26.8138 24.5156 26.5439 24.8963C26.2769 25.277 25.9118 25.5767 25.4487 25.7955C24.9857 26.0114 24.4558 26.1193 23.8592 26.1193ZM28.3693 26L32.179 18.4659V18.402H27.7727V17.2727H33.5426V18.4403L29.7457 26H28.3693ZM34.5615 26V19.4545H35.7931V20.4943H35.8612C35.9806 20.142 36.1908 19.8651 36.4919 19.6634C36.7959 19.4588 37.1397 19.3565 37.5232 19.3565C37.6027 19.3565 37.6965 19.3594 37.8044 19.3651C37.9152 19.3707 38.0019 19.3778 38.0644 19.3864V20.6051C38.0132 20.5909 37.9223 20.5753 37.7916 20.5582C37.661 20.5384 37.5303 20.5284 37.3996 20.5284C37.0985 20.5284 36.83 20.5923 36.5942 20.7202C36.3612 20.8452 36.1766 21.0199 36.0402 21.2443C35.9039 21.4659 35.8357 21.7187 35.8357 22.0028V26H34.5615ZM41.5719 17.1534C41.9612 17.1562 42.3447 17.2273 42.7225 17.3665C43.1004 17.5057 43.4413 17.733 43.7452 18.0483C44.0521 18.3636 44.2964 18.7898 44.4782 19.3267C44.6629 19.8608 44.7566 20.5256 44.7594 21.321C44.7594 22.0852 44.6827 22.7656 44.5293 23.3622C44.3759 23.956 44.1558 24.4574 43.8688 24.8665C43.5847 25.2756 43.2396 25.5866 42.8333 25.7997C42.4271 26.0128 41.9697 26.1193 41.4612 26.1193C40.9413 26.1193 40.4796 26.017 40.0762 25.8125C39.6728 25.608 39.3447 25.3253 39.0918 24.9645C38.839 24.6009 38.6813 24.1832 38.6188 23.7116H39.9185C40.0038 24.0866 40.1771 24.3906 40.4384 24.6236C40.7026 24.8537 41.0435 24.9688 41.4612 24.9688C42.1004 24.9688 42.5989 24.6903 42.9569 24.1335C43.3148 23.5739 43.4952 22.7926 43.4981 21.7898H43.4299C43.2822 22.0341 43.0975 22.2443 42.8759 22.4205C42.6572 22.5966 42.4114 22.733 42.1387 22.8295C41.866 22.9261 41.5748 22.9744 41.2651 22.9744C40.7623 22.9744 40.3049 22.8509 39.893 22.6037C39.481 22.3565 39.1529 22.017 38.9086 21.5852C38.6643 21.1534 38.5421 20.6605 38.5421 20.1065C38.5421 19.5554 38.6671 19.0554 38.9171 18.6065C39.17 18.1577 39.5222 17.8026 39.9739 17.5412C40.4285 17.277 40.9612 17.1477 41.5719 17.1534ZM41.5762 18.2614C41.2438 18.2614 40.9441 18.3437 40.6771 18.5085C40.4129 18.6705 40.204 18.8906 40.0506 19.169C39.8972 19.4446 39.8205 19.7514 39.8205 20.0895C39.8205 20.4276 39.8944 20.7344 40.0421 21.0099C40.1927 21.2827 40.3972 21.5 40.6558 21.6619C40.9171 21.821 41.2154 21.9006 41.5506 21.9006C41.8006 21.9006 42.0336 21.8523 42.2495 21.7557C42.4654 21.6591 42.6543 21.5256 42.8163 21.3551C42.9782 21.1818 43.1046 20.9858 43.1955 20.767C43.2864 20.5483 43.3319 20.3182 43.3319 20.0767C43.3319 19.7557 43.2552 19.4574 43.1018 19.1818C42.9512 18.9062 42.7438 18.6847 42.4796 18.517C42.2154 18.3466 41.9143 18.2614 41.5762 18.2614ZM48.7677 26.1193C48.1569 26.1193 47.6172 26.0142 47.1484 25.804C46.6825 25.5937 46.3174 25.304 46.0532 24.9347C45.789 24.5653 45.6584 24.1449 45.6612 23.6733C45.6584 23.304 45.7336 22.9645 45.887 22.6548C46.0433 22.3423 46.2549 22.0824 46.522 21.875C46.789 21.6648 47.0873 21.5312 47.4169 21.4744V21.4233C46.9822 21.3182 46.6342 21.0852 46.3728 20.7244C46.1115 20.3636 45.9822 19.9489 45.9851 19.4801C45.9822 19.0341 46.1001 18.6364 46.3387 18.2869C46.5802 17.9347 46.9112 17.6577 47.3316 17.456C47.7521 17.2543 48.2308 17.1534 48.7677 17.1534C49.299 17.1534 49.7734 17.2557 50.191 17.4602C50.6115 17.6619 50.9424 17.9389 51.1839 18.2912C51.4254 18.6406 51.5476 19.0369 51.5504 19.4801C51.5476 19.9489 51.414 20.3636 51.1498 20.7244C50.8856 21.0852 50.5419 21.3182 50.1186 21.4233V21.4744C50.4453 21.5312 50.7393 21.6648 51.0007 21.875C51.2649 22.0824 51.4751 22.3423 51.6314 22.6548C51.7905 22.9645 51.8714 23.304 51.8743 23.6733C51.8714 24.1449 51.7379 24.5653 51.4737 24.9347C51.2095 25.304 50.843 25.5937 50.3743 25.804C49.9084 26.0142 49.3728 26.1193 48.7677 26.1193ZM48.7677 25.0412C49.1285 25.0412 49.441 24.9815 49.7052 24.8622C49.9694 24.7401 50.174 24.571 50.3189 24.3551C50.4637 24.1364 50.5376 23.8807 50.5405 23.5881C50.5376 23.2841 50.4581 23.0156 50.3018 22.7827C50.1484 22.5497 49.9396 22.3665 49.6754 22.233C49.4112 22.0994 49.1086 22.0327 48.7677 22.0327C48.424 22.0327 48.1186 22.0994 47.8515 22.233C47.5845 22.3665 47.3743 22.5497 47.2209 22.7827C47.0674 23.0156 46.9922 23.2841 46.995 23.5881C46.9922 23.8807 47.0618 24.1364 47.2038 24.3551C47.3487 24.571 47.5547 24.7401 47.8217 24.8622C48.0887 24.9815 48.4041 25.0412 48.7677 25.0412ZM48.7677 20.9801C49.0575 20.9801 49.3146 20.9219 49.539 20.8054C49.7635 20.6889 49.9396 20.527 50.0674 20.3196C50.1981 20.1122 50.2649 19.8693 50.2677 19.5909C50.2649 19.3182 50.1995 19.0795 50.0717 18.875C49.9467 18.6705 49.772 18.5128 49.5476 18.402C49.3231 18.2884 49.0632 18.2315 48.7677 18.2315C48.4666 18.2315 48.2024 18.2884 47.9751 18.402C47.7507 18.5128 47.576 18.6705 47.451 18.875C47.326 19.0795 47.2649 19.3182 47.2677 19.5909C47.2649 19.8693 47.3274 20.1122 47.4552 20.3196C47.5831 20.527 47.7592 20.6889 47.9836 20.8054C48.2109 20.9219 48.4723 20.9801 48.7677 20.9801ZM52.9209 26V25.0455L55.874 21.9858C56.1894 21.6534 56.4493 21.3622 56.6538 21.1122C56.8612 20.8594 57.0161 20.6193 57.1183 20.392C57.2206 20.1648 57.2717 19.9233 57.2717 19.6676C57.2717 19.3778 57.2036 19.1278 57.0672 18.9176C56.9308 18.7045 56.7448 18.5412 56.509 18.4276C56.2732 18.3111 56.0075 18.2528 55.7121 18.2528C55.3996 18.2528 55.1269 18.3168 54.8939 18.4446C54.661 18.5724 54.482 18.7528 54.357 18.9858C54.232 19.2187 54.1695 19.4915 54.1695 19.804H52.9124C52.9124 19.2727 53.0345 18.8082 53.2788 18.4105C53.5232 18.0128 53.8584 17.7045 54.2845 17.4858C54.7107 17.2642 55.195 17.1534 55.7377 17.1534C56.286 17.1534 56.7689 17.2628 57.1865 17.4815C57.607 17.6974 57.9351 17.9929 58.1709 18.3679C58.4067 18.7401 58.5246 19.1605 58.5246 19.6293C58.5246 19.9531 58.4635 20.2699 58.3413 20.5795C58.222 20.8892 58.0132 21.2344 57.7149 21.6151C57.4166 21.9929 57.0019 22.4517 56.4706 22.9915L54.7362 24.8068V24.8707H58.6652V26H52.9209ZM63.1113 17.2727V26H61.7903V18.5938H61.7392L59.6511 19.9574V18.696L61.8287 17.2727H63.1113ZM64.9921 26V25.0455L67.9453 21.9858C68.2606 21.6534 68.5206 21.3622 68.7251 21.1122C68.9325 20.8594 69.0873 20.6193 69.1896 20.392C69.2919 20.1648 69.343 19.9233 69.343 19.6676C69.343 19.3778 69.2748 19.1278 69.1385 18.9176C69.0021 18.7045 68.816 18.5412 68.5802 18.4276C68.3444 18.3111 68.0788 18.2528 67.7833 18.2528C67.4708 18.2528 67.1981 18.3168 66.9652 18.4446C66.7322 18.5724 66.5532 18.7528 66.4282 18.9858C66.3032 19.2187 66.2407 19.4915 66.2407 19.804H64.9836C64.9836 19.2727 65.1058 18.8082 65.3501 18.4105C65.5944 18.0128 65.9296 17.7045 66.3558 17.4858C66.7819 17.2642 67.2663 17.1534 67.8089 17.1534C68.3572 17.1534 68.8402 17.2628 69.2578 17.4815C69.6782 17.6974 70.0063 17.9929 70.2421 18.3679C70.4779 18.7401 70.5958 19.1605 70.5958 19.6293C70.5958 19.9531 70.5348 20.2699 70.4126 20.5795C70.2933 20.8892 70.0845 21.2344 69.7862 21.6151C69.4879 21.9929 69.0731 22.4517 68.5419 22.9915L66.8075 24.8068V24.8707H70.7365V26H64.9921ZM6.85653 45V38.4545H8.08807V39.4943H8.15625C8.27557 39.142 8.4858 38.8651 8.78693 38.6634C9.09091 38.4588 9.43466 38.3565 9.81818 38.3565C9.89773 38.3565 9.99148 38.3594 10.0994 38.3651C10.2102 38.3707 10.2969 38.3778 10.3594 38.3864V39.6051C10.3082 39.5909 10.2173 39.5753 10.0866 39.5582C9.95597 39.5384 9.82528 39.5284 9.6946 39.5284C9.39347 39.5284 9.125 39.5923 8.8892 39.7202C8.65625 39.8452 8.47159 40.0199 8.33523 40.2443C8.19886 40.4659 8.13068 40.7187 8.13068 41.0028V45H6.85653ZM13.4919 47.5909C12.9721 47.5909 12.5246 47.5227 12.1496 47.3864C11.7775 47.25 11.4735 47.0696 11.2377 46.8452C11.0019 46.6207 10.8258 46.375 10.7093 46.108L11.8044 45.6562C11.8812 45.7812 11.9834 45.9134 12.1113 46.0526C12.2419 46.1946 12.4181 46.3153 12.6397 46.4148C12.8641 46.5142 13.1525 46.5639 13.5047 46.5639C13.9877 46.5639 14.3868 46.446 14.7022 46.2102C15.0175 45.9773 15.1752 45.6051 15.1752 45.0938V43.8068H15.0942C15.0175 43.946 14.9067 44.1009 14.7618 44.2713C14.6198 44.4418 14.4238 44.5895 14.1738 44.7145C13.9238 44.8395 13.5985 44.902 13.1979 44.902C12.6809 44.902 12.215 44.7812 11.8002 44.5398C11.3883 44.2955 11.0615 43.9361 10.8201 43.4616C10.5814 42.9844 10.4621 42.3977 10.4621 41.7017C10.4621 41.0057 10.58 40.4091 10.8158 39.9119C11.0544 39.4148 11.3812 39.0341 11.7959 38.7699C12.2107 38.5028 12.6809 38.3693 13.2064 38.3693C13.6127 38.3693 13.9408 38.4375 14.1908 38.5739C14.4408 38.7074 14.6354 38.8636 14.7746 39.0426C14.9167 39.2216 15.026 39.3793 15.1027 39.5156H15.1965V38.4545H16.4451V45.1449C16.4451 45.7074 16.3144 46.169 16.053 46.5298C15.7917 46.8906 15.438 47.1577 14.9919 47.331C14.5488 47.5043 14.0488 47.5909 13.4919 47.5909ZM13.4792 43.8452C13.8456 43.8452 14.1553 43.7599 14.4081 43.5895C14.6638 43.4162 14.857 43.169 14.9877 42.848C15.1212 42.5241 15.188 42.1364 15.188 41.6847C15.188 41.2443 15.1226 40.8565 14.9919 40.5213C14.8613 40.1861 14.6695 39.9247 14.4167 39.7372C14.1638 39.5469 13.8513 39.4517 13.4792 39.4517C13.0956 39.4517 12.776 39.5511 12.5204 39.75C12.2647 39.946 12.0715 40.2131 11.9408 40.5511C11.813 40.8892 11.749 41.267 11.749 41.6847C11.749 42.1136 11.8144 42.4901 11.9451 42.8139C12.0758 43.1378 12.2689 43.3906 12.5246 43.5724C12.7831 43.7543 13.1013 43.8452 13.4792 43.8452ZM20.4949 45.1321C19.85 45.1321 19.2946 44.9943 18.8287 44.7188C18.3656 44.4403 18.0077 44.0497 17.7548 43.5469C17.5048 43.0412 17.3798 42.4489 17.3798 41.7699C17.3798 41.0994 17.5048 40.5085 17.7548 39.9972C18.0077 39.4858 18.36 39.0866 18.8117 38.7997C19.2662 38.5128 19.7975 38.3693 20.4054 38.3693C20.7747 38.3693 21.1327 38.4304 21.4793 38.5526C21.8259 38.6747 22.1369 38.8665 22.4125 39.1278C22.6881 39.3892 22.9054 39.7287 23.0645 40.1463C23.2236 40.5611 23.3031 41.0653 23.3031 41.6591V42.1108H18.1V41.1562H22.0546C22.0546 40.821 21.9864 40.5241 21.85 40.2656C21.7137 40.0043 21.5219 39.7983 21.2747 39.6477C21.0304 39.4972 20.7435 39.4219 20.4139 39.4219C20.056 39.4219 19.7435 39.5099 19.4764 39.6861C19.2122 39.8594 19.0077 40.0866 18.8628 40.3679C18.7208 40.6463 18.6497 40.9489 18.6497 41.2756V42.0213C18.6497 42.4588 18.7264 42.831 18.8798 43.1378C19.0361 43.4446 19.2534 43.679 19.5318 43.8409C19.8102 44 20.1355 44.0795 20.5077 44.0795C20.7492 44.0795 20.9693 44.0455 21.1682 43.9773C21.3671 43.9062 21.5389 43.8011 21.6838 43.6619C21.8287 43.5227 21.9395 43.3509 22.0162 43.1463L23.2222 43.3636C23.1256 43.7187 22.9523 44.0298 22.7023 44.2969C22.4551 44.5611 22.144 44.767 21.769 44.9148C21.3969 45.0597 20.9722 45.1321 20.4949 45.1321ZM24.8547 47.4545C24.6644 47.4545 24.4911 47.4389 24.3349 47.4077C24.1786 47.3793 24.0621 47.348 23.9854 47.3139L24.2922 46.2699C24.5252 46.3324 24.7326 46.3594 24.9144 46.3509C25.0962 46.3423 25.2567 46.2741 25.3959 46.1463C25.538 46.0185 25.663 45.8097 25.7709 45.5199L25.9286 45.0852L23.5337 38.4545H24.8974L26.555 43.5341H26.6232L28.2809 38.4545H29.6488L26.9513 45.8736C26.8263 46.2145 26.6672 46.5028 26.4741 46.7386C26.2809 46.9773 26.0508 47.1563 25.7837 47.2756C25.5167 47.3949 25.207 47.4545 24.8547 47.4545ZM32.906 45.1236C32.3208 45.1236 31.8165 45.017 31.3932 44.804C30.9728 44.5909 30.6489 44.3011 30.4216 43.9347C30.1943 43.5653 30.0807 43.1477 30.0807 42.6818C30.0807 42.3267 30.1546 42.0114 30.3023 41.7358C30.45 41.4574 30.656 41.2003 30.9202 40.9645C31.1844 40.7287 31.4898 40.4915 31.8364 40.2528L33.2426 39.2599C33.4813 39.1037 33.6674 38.9389 33.8009 38.7656C33.9344 38.5895 34.0012 38.3722 34.0012 38.1136C34.0012 37.9091 33.9131 37.7131 33.737 37.5256C33.5608 37.3381 33.325 37.2443 33.0296 37.2443C32.825 37.2443 32.6446 37.294 32.4884 37.3935C32.335 37.4929 32.2142 37.6207 32.1262 37.777C32.0409 37.9304 31.9983 38.0923 31.9983 38.2628C31.9983 38.4616 32.0523 38.6619 32.1603 38.8636C32.2711 39.0653 32.4131 39.2741 32.5864 39.4901C32.7597 39.7031 32.9415 39.9247 33.1318 40.1548L37.1844 45H35.7441L32.3904 41.0582C32.1091 40.7259 31.8478 40.4134 31.6063 40.1207C31.3648 39.8253 31.1688 39.527 31.0182 39.2259C30.8705 38.9219 30.7966 38.5938 30.7966 38.2415C30.7966 37.8409 30.8875 37.4858 31.0693 37.1761C31.254 36.8636 31.5111 36.6193 31.8407 36.4432C32.1702 36.267 32.5566 36.179 32.9997 36.179C33.4486 36.179 33.8336 36.267 34.1546 36.4432C34.4784 36.6165 34.727 36.848 34.9003 37.1378C35.0764 37.4247 35.1645 37.7386 35.1645 38.0795C35.1645 38.4943 35.0608 38.8608 34.8534 39.179C34.6489 39.4943 34.3662 39.7841 34.0054 40.0483L32.254 41.3395C31.9131 41.5895 31.6759 41.8366 31.5424 42.081C31.4117 42.3224 31.3463 42.5114 31.3463 42.6477C31.3463 42.8977 31.4103 43.1293 31.5381 43.3423C31.6688 43.5554 31.8506 43.7259 32.0836 43.8537C32.3193 43.9815 32.5949 44.0455 32.9103 44.0455C33.2341 44.0455 33.5495 43.9759 33.8563 43.8366C34.1659 43.6946 34.4458 43.4915 34.6958 43.2273C34.9486 42.9631 35.1489 42.6463 35.2966 42.277C35.4443 41.9077 35.5182 41.4943 35.5182 41.0369H36.6688C36.6688 41.5994 36.6049 42.0753 36.477 42.4645C36.3492 42.8509 36.1943 43.1662 36.0125 43.4105C35.8336 43.652 35.6645 43.8409 35.5054 43.9773C35.4543 44.0227 35.406 44.0682 35.3605 44.1136C35.3151 44.1591 35.2668 44.2045 35.2157 44.25C34.9202 44.5483 34.5622 44.7685 34.1418 44.9105C33.7242 45.0526 33.3122 45.1236 32.906 45.1236ZM40.5876 36.1534C40.9768 36.1562 41.3603 36.2273 41.7381 36.3665C42.116 36.5057 42.4569 36.733 42.7609 37.0483C43.0677 37.3636 43.312 37.7898 43.4938 38.3267C43.6785 38.8608 43.7722 39.5256 43.7751 40.321C43.7751 41.0852 43.6984 41.7656 43.545 42.3622C43.3915 42.956 43.1714 43.4574 42.8844 43.8665C42.6004 44.2756 42.2552 44.5866 41.8489 44.7997C41.4427 45.0128 40.9853 45.1193 40.4768 45.1193C39.9569 45.1193 39.4952 45.017 39.0918 44.8125C38.6884 44.608 38.3603 44.3253 38.1075 43.9645C37.8546 43.6009 37.6969 43.1832 37.6344 42.7116H38.9342C39.0194 43.0866 39.1927 43.3906 39.454 43.6236C39.7183 43.8537 40.0592 43.9688 40.4768 43.9688C41.116 43.9688 41.6146 43.6903 41.9725 43.1335C42.3305 42.5739 42.5109 41.7926 42.5137 40.7898H42.4455C42.2978 41.0341 42.1131 41.2443 41.8915 41.4205C41.6728 41.5966 41.4271 41.733 41.1543 41.8295C40.8816 41.9261 40.5904 41.9744 40.2808 41.9744C39.7779 41.9744 39.3205 41.8509 38.9086 41.6037C38.4967 41.3565 38.1685 41.017 37.9242 40.5852C37.6799 40.1534 37.5577 39.6605 37.5577 39.1065C37.5577 38.5554 37.6827 38.0554 37.9327 37.6065C38.1856 37.1577 38.5379 36.8026 38.9896 36.5412C39.4441 36.277 39.9768 36.1477 40.5876 36.1534ZM40.5918 37.2614C40.2594 37.2614 39.9597 37.3437 39.6927 37.5085C39.4285 37.6705 39.2197 37.8906 39.0663 38.169C38.9129 38.4446 38.8362 38.7514 38.8362 39.0895C38.8362 39.4276 38.91 39.7344 39.0577 40.0099C39.2083 40.2827 39.4129 40.5 39.6714 40.6619C39.9327 40.821 40.231 40.9006 40.5663 40.9006C40.8163 40.9006 41.0492 40.8523 41.2651 40.7557C41.481 40.6591 41.67 40.5256 41.8319 40.3551C41.9938 40.1818 42.1202 39.9858 42.2112 39.767C42.3021 39.5483 42.3475 39.3182 42.3475 39.0767C42.3475 38.7557 42.2708 38.4574 42.1174 38.1818C41.9668 37.9062 41.7594 37.6847 41.4952 37.517C41.231 37.3466 40.9299 37.2614 40.5918 37.2614ZM47.8728 45.1193C47.2876 45.1193 46.7649 45.0185 46.3047 44.8168C45.8473 44.6151 45.4851 44.3352 45.218 43.9773C44.9538 43.6165 44.8118 43.1989 44.7919 42.7244H46.1299C46.147 42.983 46.2336 43.2074 46.3899 43.3977C46.549 43.5852 46.7564 43.7301 47.012 43.8324C47.2677 43.9347 47.5518 43.9858 47.8643 43.9858C48.2081 43.9858 48.512 43.9261 48.7762 43.8068C49.0433 43.6875 49.2521 43.5213 49.4027 43.3082C49.5532 43.0923 49.6285 42.8438 49.6285 42.5625C49.6285 42.2699 49.5532 42.0128 49.4027 41.7912C49.2549 41.5668 49.0376 41.3906 48.7507 41.2628C48.4666 41.1349 48.1228 41.071 47.7194 41.071H46.9822V39.9972H47.7194C48.0433 39.9972 48.3274 39.9389 48.5717 39.8224C48.8189 39.706 49.012 39.544 49.1512 39.3366C49.2905 39.1264 49.3601 38.8807 49.3601 38.5994C49.3601 38.3295 49.299 38.0952 49.1768 37.8963C49.0575 37.6946 48.887 37.5369 48.6655 37.4233C48.4467 37.3097 48.1882 37.2528 47.8899 37.2528C47.6058 37.2528 47.3402 37.3054 47.093 37.4105C46.8487 37.5128 46.6498 37.6605 46.4964 37.8537C46.343 38.044 46.2606 38.2727 46.2493 38.5398H44.9751C44.9893 38.0682 45.1285 37.6534 45.3927 37.2955C45.6598 36.9375 46.012 36.6577 46.4495 36.456C46.887 36.2543 47.3728 36.1534 47.9069 36.1534C48.4666 36.1534 48.9495 36.2628 49.3558 36.4815C49.7649 36.6974 50.0802 36.9858 50.3018 37.3466C50.5262 37.7074 50.637 38.1023 50.6342 38.5312C50.637 39.0199 50.5007 39.4347 50.2251 39.7756C49.9524 40.1165 49.5887 40.3452 49.1342 40.4616V40.5298C49.7137 40.6179 50.1626 40.848 50.4808 41.2202C50.8018 41.5923 50.9609 42.054 50.9581 42.6051C50.9609 43.0852 50.8274 43.5156 50.5575 43.8963C50.2905 44.277 49.9254 44.5767 49.4623 44.7955C48.9993 45.0114 48.4694 45.1193 47.8728 45.1193ZM51.9056 43.2955V42.2301L55.6769 36.2727H56.5164V37.8409H55.9837L53.2863 42.1108V42.179H58.4553V43.2955H51.9056ZM56.0434 45V42.9716L56.0519 42.4858V36.2727H57.3005V45H56.0434ZM63.334 40.0824V41.1903H59.4647V40.0824H63.334ZM64.1836 45V44.0455L67.1367 40.9858C67.452 40.6534 67.712 40.3622 67.9165 40.1122C68.1239 39.8594 68.2787 39.6193 68.381 39.392C68.4833 39.1648 68.5344 38.9233 68.5344 38.6676C68.5344 38.3778 68.4662 38.1278 68.3299 37.9176C68.1935 37.7045 68.0074 37.5412 67.7716 37.4276C67.5358 37.3111 67.2702 37.2528 66.9747 37.2528C66.6622 37.2528 66.3895 37.3168 66.1566 37.4446C65.9236 37.5724 65.7446 37.7528 65.6196 37.9858C65.4946 38.2187 65.4321 38.4915 65.4321 38.804H64.175C64.175 38.2727 64.2972 37.8082 64.5415 37.4105C64.7858 37.0128 65.1211 36.7045 65.5472 36.4858C65.9733 36.2642 66.4577 36.1534 67.0003 36.1534C67.5486 36.1534 68.0316 36.2628 68.4492 36.4815C68.8696 36.6974 69.1978 36.9929 69.4336 37.3679C69.6693 37.7401 69.7872 38.1605 69.7872 38.6293C69.7872 38.9531 69.7262 39.2699 69.604 39.5795C69.4847 39.8892 69.2759 40.2344 68.9776 40.6151C68.6793 40.9929 68.2645 41.4517 67.7333 41.9915L65.9989 43.8068V43.8707H69.9279V45H64.1836ZM9.87784 64.1193C9.29261 64.1193 8.76989 64.0185 8.30966 63.8168C7.85227 63.6151 7.49006 63.3352 7.22301 62.9773C6.95881 62.6165 6.81676 62.1989 6.79688 61.7244H8.13494C8.15199 61.983 8.23864 62.2074 8.39489 62.3977C8.55398 62.5852 8.76136 62.7301 9.01705 62.8324C9.27273 62.9347 9.55682 62.9858 9.86932 62.9858C10.2131 62.9858 10.517 62.9261 10.7812 62.8068C11.0483 62.6875 11.2571 62.5213 11.4077 62.3082C11.5582 62.0923 11.6335 61.8438 11.6335 61.5625C11.6335 61.2699 11.5582 61.0128 11.4077 60.7912C11.2599 60.5668 11.0426 60.3906 10.7557 60.2628C10.4716 60.1349 10.1278 60.071 9.72443 60.071H8.98722V58.9972H9.72443C10.0483 58.9972 10.3324 58.9389 10.5767 58.8224C10.8239 58.706 11.017 58.544 11.1562 58.3366C11.2955 58.1264 11.3651 57.8807 11.3651 57.5994C11.3651 57.3295 11.304 57.0952 11.1818 56.8963C11.0625 56.6946 10.892 56.5369 10.6705 56.4233C10.4517 56.3097 10.1932 56.2528 9.89489 56.2528C9.6108 56.2528 9.34517 56.3054 9.09801 56.4105C8.85369 56.5128 8.65483 56.6605 8.50142 56.8537C8.34801 57.044 8.26563 57.2727 8.25426 57.5398H6.98011C6.99432 57.0682 7.13352 56.6534 7.39773 56.2955C7.66477 55.9375 8.01705 55.6577 8.45455 55.456C8.89205 55.2543 9.37784 55.1534 9.91193 55.1534C10.4716 55.1534 10.9545 55.2628 11.3608 55.4815C11.7699 55.6974 12.0852 55.9858 12.3068 56.3466C12.5313 56.7074 12.642 57.1023 12.6392 57.5312C12.642 58.0199 12.5057 58.4347 12.2301 58.7756C11.9574 59.1165 11.5938 59.3452 11.1392 59.4616V59.5298C11.7188 59.6179 12.1676 59.848 12.4858 60.2202C12.8068 60.5923 12.9659 61.054 12.9631 61.6051C12.9659 62.0852 12.8324 62.5156 12.5625 62.8963C12.2955 63.277 11.9304 63.5767 11.4673 63.7955C11.0043 64.0114 10.4744 64.1193 9.87784 64.1193ZM13.9106 62.2955V61.2301L17.6819 55.2727H18.5214V56.8409H17.9887L15.2913 61.1108V61.179H20.4603V62.2955H13.9106ZM18.0484 64V61.9716L18.0569 61.4858V55.2727H19.3055V64H18.0484ZM22.6543 61.7798L22.6458 60.2244H22.8674L25.4754 57.4545H27.0009L24.0265 60.608H23.8262L22.6543 61.7798ZM21.4825 64V55.2727H22.7566V64H21.4825ZM25.616 64L23.2722 60.8892L24.1501 59.9986L27.1799 64H25.616ZM27.6651 64V63.0455L30.6182 59.9858C30.9336 59.6534 31.1935 59.3622 31.3981 59.1122C31.6055 58.8594 31.7603 58.6193 31.8626 58.392C31.9648 58.1648 32.016 57.9233 32.016 57.6676C32.016 57.3778 31.9478 57.1278 31.8114 56.9176C31.6751 56.7045 31.489 56.5412 31.2532 56.4276C31.0174 56.3111 30.7518 56.2528 30.4563 56.2528C30.1438 56.2528 29.8711 56.3168 29.6381 56.4446C29.4052 56.5724 29.2262 56.7528 29.1012 56.9858C28.9762 57.2187 28.9137 57.4915 28.9137 57.804H27.6566C27.6566 57.2727 27.7787 56.8082 28.0231 56.4105C28.2674 56.0128 28.6026 55.7045 29.0287 55.4858C29.4549 55.2642 29.9393 55.1534 30.4819 55.1534C31.0302 55.1534 31.5131 55.2628 31.9307 55.4815C32.3512 55.6974 32.6793 55.9929 32.9151 56.3679C33.1509 56.7401 33.2688 57.1605 33.2688 57.6293C33.2688 57.9531 33.2077 58.2699 33.0856 58.5795C32.9662 58.8892 32.7574 59.2344 32.4591 59.6151C32.1609 59.9929 31.7461 60.4517 31.2148 60.9915L29.4805 62.8068V62.8707H33.4094V64H27.6651ZM37.5828 64.1193C36.9976 64.1193 36.4749 64.0185 36.0147 63.8168C35.5573 63.6151 35.1951 63.3352 34.928 62.9773C34.6638 62.6165 34.5218 62.1989 34.5019 61.7244H35.8399C35.857 61.983 35.9436 62.2074 36.0999 62.3977C36.259 62.5852 36.4664 62.7301 36.722 62.8324C36.9777 62.9347 37.2618 62.9858 37.5743 62.9858C37.9181 62.9858 38.222 62.9261 38.4862 62.8068C38.7533 62.6875 38.9621 62.5213 39.1127 62.3082C39.2632 62.0923 39.3385 61.8438 39.3385 61.5625C39.3385 61.2699 39.2632 61.0128 39.1127 60.7912C38.9649 60.5668 38.7476 60.3906 38.4607 60.2628C38.1766 60.1349 37.8328 60.071 37.4294 60.071H36.6922V58.9972H37.4294C37.7533 58.9972 38.0374 58.9389 38.2817 58.8224C38.5289 58.706 38.722 58.544 38.8612 58.3366C39.0005 58.1264 39.0701 57.8807 39.0701 57.5994C39.0701 57.3295 39.009 57.0952 38.8868 56.8963C38.7675 56.6946 38.597 56.5369 38.3755 56.4233C38.1567 56.3097 37.8982 56.2528 37.5999 56.2528C37.3158 56.2528 37.0502 56.3054 36.803 56.4105C36.5587 56.5128 36.3598 56.6605 36.2064 56.8537C36.053 57.044 35.9706 57.2727 35.9593 57.5398H34.6851C34.6993 57.0682 34.8385 56.6534 35.1027 56.2955C35.3698 55.9375 35.722 55.6577 36.1595 55.456C36.597 55.2543 37.0828 55.1534 37.6169 55.1534C38.1766 55.1534 38.6595 55.2628 39.0658 55.4815C39.4749 55.6974 39.7902 55.9858 40.0118 56.3466C40.2363 56.7074 40.347 57.1023 40.3442 57.5312C40.347 58.0199 40.2107 58.4347 39.9351 58.7756C39.6624 59.1165 39.2988 59.3452 38.8442 59.4616V59.5298C39.4238 59.6179 39.8726 59.848 40.1908 60.2202C40.5118 60.5923 40.6709 61.054 40.6681 61.6051C40.6709 62.0852 40.5374 62.5156 40.2675 62.8963C40.0005 63.277 39.6354 63.5767 39.1723 63.7955C38.7093 64.0114 38.1794 64.1193 37.5828 64.1193ZM41.6156 62.2955V61.2301L45.3869 55.2727H46.2264V56.8409H45.6937L42.9963 61.1108V61.179H48.1653V62.2955H41.6156ZM45.7534 64V61.9716L45.7619 61.4858V55.2727H47.0105V64H45.7534ZM52.2088 64.1449C51.5355 64.142 50.9602 63.9645 50.4829 63.6122C50.0057 63.2599 49.6406 62.7472 49.3878 62.0739C49.1349 61.4006 49.0085 60.5895 49.0085 59.6406C49.0085 58.6946 49.1349 57.8864 49.3878 57.2159C49.6434 56.5455 50.0099 56.0341 50.4872 55.6818C50.9673 55.3295 51.5412 55.1534 52.2088 55.1534C52.8764 55.1534 53.4488 55.331 53.9261 55.6861C54.4034 56.0384 54.7684 56.5497 55.0213 57.2202C55.277 57.8878 55.4048 58.6946 55.4048 59.6406C55.4048 60.5923 55.2784 61.4048 55.0255 62.0781C54.7727 62.7486 54.4076 63.2614 53.9304 63.6165C53.4531 63.9688 52.8792 64.1449 52.2088 64.1449ZM52.2088 63.0071C52.7997 63.0071 53.2613 62.7188 53.5937 62.142C53.9289 61.5653 54.0966 60.7315 54.0966 59.6406C54.0966 58.9162 54.0199 58.304 53.8664 57.804C53.7159 57.3011 53.4986 56.9205 53.2145 56.6619C52.9332 56.4006 52.598 56.2699 52.2088 56.2699C51.6207 56.2699 51.1591 56.5597 50.8238 57.1392C50.4886 57.7187 50.3196 58.5526 50.3167 59.6406C50.3167 60.3679 50.392 60.983 50.5426 61.4858C50.696 61.9858 50.9133 62.3651 51.1946 62.6236C51.4758 62.8793 51.8139 63.0071 52.2088 63.0071ZM56.4536 64V57.4545H57.6766V58.5199H57.7575C57.8939 58.1591 58.1169 57.8778 58.4266 57.6761C58.7362 57.4716 59.107 57.3693 59.5388 57.3693C59.9763 57.3693 60.3428 57.4716 60.6382 57.6761C60.9365 57.8807 61.1567 58.1619 61.2987 58.5199H61.3669C61.5232 58.1705 61.7717 57.892 62.1127 57.6847C62.4536 57.4744 62.8598 57.3693 63.3314 57.3693C63.9252 57.3693 64.4095 57.5554 64.7845 57.9276C65.1624 58.2997 65.3513 58.8608 65.3513 59.6108V64H64.0771V59.7301C64.0771 59.2869 63.9564 58.9659 63.7149 58.767C63.4735 58.5682 63.1851 58.4688 62.8499 58.4688C62.4351 58.4688 62.1127 58.5966 61.8825 58.8523C61.6524 59.1051 61.5374 59.4304 61.5374 59.8281V64H60.2675V59.6491C60.2675 59.294 60.1567 59.0085 59.9351 58.7926C59.7135 58.5767 59.4252 58.4688 59.07 58.4688C58.8286 58.4688 58.6056 58.5327 58.401 58.6605C58.1993 58.7855 58.036 58.9602 57.911 59.1847C57.7888 59.4091 57.7277 59.669 57.7277 59.9645V64H56.4536ZM69.3926 55.2727V64H68.0716V56.5938H68.0204L65.9324 57.9574V56.696L68.1099 55.2727H69.3926Z" fill="#00982B"/>
<defs>
<filter id="filter0_i_19_6353" x="6" y="6" width="68" height="70" filterUnits="userSpaceOnUse" color-interpolation-filters="sRGB">
<feFlood flood-opacity="0" result="BackgroundImageFix"/>
<feBlend mode="normal" in="SourceGraphic" in2="BackgroundImageFix" result="shape"/>
<feColorMatrix in="SourceAlpha" type="matrix" values="0 0 0 0 0 0 0 0 0 0 0 0 0 0 0 0 0 0 127 0" result="hardAlpha"/>
<feOffset dy="2"/>
<feGaussianBlur stdDeviation="2.5"/>
<feComposite in2="hardAlpha" operator="arithmetic" k2="-1" k3="1"/>
<feColorMatrix type="matrix" values="0 0 0 0 0 0 0 0 0 0 0 0 0 0 0 0 0 0 0.12 0"/>
<feBlend mode="normal" in2="shape" result="effect1_innerShadow_19_6353"/>
</filter>
<linearGradient id="paint0_linear_19_6353" x1="21" y1="6" x2="40" y2="74" gradientUnits="userSpaceOnUse">
<stop stop-color="#5DFF8B" stop-opacity="0.6"/>
<stop offset="1" stop-color="#00FF47"/>
</linearGradient>
</defs>
</svg>
