<svg width="80" height="80" viewBox="0 0 80 80" fill="none" xmlns="http://www.w3.org/2000/svg">
<rect x="3" y="3" width="74" height="74" rx="17" fill="#2589FF" stroke="white" stroke-width="6"/>
<g filter="url(#filter0_if_19_6330)">
<rect x="6" y="6" width="68" height="68" rx="14" fill="url(#paint0_linear_19_6330)" fill-opacity="0.41"/>
</g>
<rect x="18" y="51" width="43" height="6" rx="3" fill="white"/>
<g clip-path="url(#clip0_19_6330)">
<path d="M34.5 39.5C33 40.76 32.5 44.5 32.5 44.5C32.5 44.5 36.24 44 37.5 42.5C38.21 41.66 38.2 40.37 37.41 39.59C37.0213 39.219 36.5093 39.0046 35.9722 38.988C35.4352 38.9714 34.9109 39.1537 34.5 39.5Z" stroke="white" stroke-width="2" stroke-linecap="round" stroke-linejoin="round"/>
<path d="M42 38L39 35C39.5321 33.6194 40.2022 32.2961 41 31.05C42.1652 29.187 43.7876 27.653 45.713 26.5941C47.6384 25.5351 49.8027 24.9864 52 25C52 27.72 51.22 32.5 46 36C44.7369 36.7987 43.3968 37.4687 42 38Z" stroke="white" stroke-width="2" stroke-linecap="round" stroke-linejoin="round"/>
<path d="M35 35H30C30 35 30.55 31.97 32 31C33.62 29.92 37 31 37 31" stroke="white" stroke-width="2" stroke-linecap="round" stroke-linejoin="round"/>
<path d="M43 41V46C43 46 46.03 45.45 47 44C48.08 42.38 47 39 47 39" stroke="white" stroke-width="2" stroke-linecap="round" stroke-linejoin="round"/>
</g>
<defs>
<filter id="filter0_if_19_6330" x="2" y="2" width="76" height="76" filterUnits="userSpaceOnUse" color-interpolation-filters="sRGB">
<feFlood flood-opacity="0" result="BackgroundImageFix"/>
<feBlend mode="normal" in="SourceGraphic" in2="BackgroundImageFix" result="shape"/>
<feColorMatrix in="SourceAlpha" type="matrix" values="0 0 0 0 0 0 0 0 0 0 0 0 0 0 0 0 0 0 127 0" result="hardAlpha"/>
<feOffset dy="2"/>
<feGaussianBlur stdDeviation="2.5"/>
<feComposite in2="hardAlpha" operator="arithmetic" k2="-1" k3="1"/>
<feColorMatrix type="matrix" values="0 0 0 0 0 0 0 0 0 0 0 0 0 0 0 0 0 0 0.12 0"/>
<feBlend mode="normal" in2="shape" result="effect1_innerShadow_19_6330"/>
<feGaussianBlur stdDeviation="2" result="effect2_foregroundBlur_19_6330"/>
</filter>
<linearGradient id="paint0_linear_19_6330" x1="21" y1="6" x2="40" y2="74" gradientUnits="userSpaceOnUse">
<stop stop-color="#F9E7FF"/>
<stop offset="1" stop-color="#3354FF"/>
</linearGradient>
<clipPath id="clip0_19_6330">
<rect width="24" height="24" fill="white" transform="translate(30 23)"/>
</clipPath>
</defs>
</svg>
