<svg width="80" height="80" viewBox="0 0 80 80" fill="none" xmlns="http://www.w3.org/2000/svg">
<rect x="3" y="3" width="74" height="74" rx="17" fill="white" stroke="white" stroke-width="6"/>
<g filter="url(#filter0_i_19_6320)">
<rect x="6" y="6" width="68" height="68" rx="14" fill="url(#paint0_linear_19_6320)" fill-opacity="0.41"/>
</g>
<path d="M10.1506 17.2727V26H8.82955V18.5938H8.77841L6.69034 19.9574V18.696L8.8679 17.2727H10.1506ZM15.0697 26.1449C14.3964 26.142 13.8211 25.9645 13.3439 25.6122C12.8666 25.2599 12.5015 24.7472 12.2487 24.0739C11.9959 23.4006 11.8694 22.5895 11.8694 21.6406C11.8694 20.6946 11.9959 19.8864 12.2487 19.2159C12.5044 18.5455 12.8709 18.0341 13.3481 17.6818C13.8282 17.3295 14.4021 17.1534 15.0697 17.1534C15.7373 17.1534 16.3098 17.331 16.787 17.6861C17.2643 18.0384 17.6294 18.5497 17.8822 19.2202C18.1379 19.8878 18.2657 20.6946 18.2657 21.6406C18.2657 22.5923 18.1393 23.4048 17.8865 24.0781C17.6336 24.7486 17.2686 25.2614 16.7913 25.6165C16.314 25.9688 15.7402 26.1449 15.0697 26.1449ZM15.0697 25.0071C15.6606 25.0071 16.1223 24.7188 16.4547 24.142C16.7899 23.5653 16.9575 22.7315 16.9575 21.6406C16.9575 20.9162 16.8808 20.304 16.7274 19.804C16.5768 19.3011 16.3595 18.9205 16.0754 18.6619C15.7941 18.4006 15.4589 18.2699 15.0697 18.2699C14.4816 18.2699 14.02 18.5597 13.6848 19.1392C13.3495 19.7187 13.1805 20.5526 13.1777 21.6406C13.1777 22.3679 13.253 22.983 13.4035 23.4858C13.5569 23.9858 13.7743 24.3651 14.0555 24.6236C14.3368 24.8793 14.6748 25.0071 15.0697 25.0071ZM22.6085 17.2727V26H21.2875V18.5938H21.2364L19.1483 19.9574V18.696L21.3259 17.2727H22.6085ZM27.8004 17.2727V26H26.4794V18.5938H26.4283L24.3402 19.9574V18.696L26.5177 17.2727H27.8004ZM32.7196 26.1449C32.0463 26.142 31.471 25.9645 30.9937 25.6122C30.5164 25.2599 30.1514 24.7472 29.8985 24.0739C29.6457 23.4006 29.5193 22.5895 29.5193 21.6406C29.5193 20.6946 29.6457 19.8864 29.8985 19.2159C30.1542 18.5455 30.5207 18.0341 30.998 17.6818C31.4781 17.3295 32.0519 17.1534 32.7196 17.1534C33.3872 17.1534 33.9596 17.331 34.4369 17.6861C34.9142 18.0384 35.2792 18.5497 35.5321 19.2202C35.7877 19.8878 35.9156 20.6946 35.9156 21.6406C35.9156 22.5923 35.7892 23.4048 35.5363 24.0781C35.2835 24.7486 34.9184 25.2614 34.4412 25.6165C33.9639 25.9688 33.39 26.1449 32.7196 26.1449ZM32.7196 25.0071C33.3105 25.0071 33.7721 24.7188 34.1045 24.142C34.4397 23.5653 34.6073 22.7315 34.6073 21.6406C34.6073 20.9162 34.5306 20.304 34.3772 19.804C34.2267 19.3011 34.0093 18.9205 33.7252 18.6619C33.444 18.4006 33.1088 18.2699 32.7196 18.2699C32.1315 18.2699 31.6698 18.5597 31.3346 19.1392C30.9994 19.7187 30.8304 20.5526 30.8275 21.6406C30.8275 22.3679 30.9028 22.983 31.0534 23.4858C31.2068 23.9858 31.4241 24.3651 31.7054 24.6236C31.9866 24.8793 32.3247 25.0071 32.7196 25.0071ZM40.2584 17.2727V26H38.9374V18.5938H38.8862L36.7982 19.9574V18.696L38.9757 17.2727H40.2584ZM45.4503 17.2727V26H44.1292V18.5938H44.0781L41.99 19.9574V18.696L44.1676 17.2727H45.4503ZM50.3694 26.1449C49.6961 26.142 49.1208 25.9645 48.6436 25.6122C48.1663 25.2599 47.8012 24.7472 47.5484 24.0739C47.2955 23.4006 47.1691 22.5895 47.1691 21.6406C47.1691 20.6946 47.2955 19.8864 47.5484 19.2159C47.8041 18.5455 48.1705 18.0341 48.6478 17.6818C49.1279 17.3295 49.7018 17.1534 50.3694 17.1534C51.037 17.1534 51.6095 17.331 52.0867 17.6861C52.564 18.0384 52.9291 18.5497 53.1819 19.2202C53.4376 19.8878 53.5654 20.6946 53.5654 21.6406C53.5654 22.5923 53.439 23.4048 53.1862 24.0781C52.9333 24.7486 52.5683 25.2614 52.091 25.6165C51.6137 25.9688 51.0399 26.1449 50.3694 26.1449ZM50.3694 25.0071C50.9603 25.0071 51.422 24.7188 51.7543 24.142C52.0896 23.5653 52.2572 22.7315 52.2572 21.6406C52.2572 20.9162 52.1805 20.304 52.0271 19.804C51.8765 19.3011 51.6592 18.9205 51.3751 18.6619C51.0938 18.4006 50.7586 18.2699 50.3694 18.2699C49.7813 18.2699 49.3197 18.5597 48.9845 19.1392C48.6492 19.7187 48.4802 20.5526 48.4774 21.6406C48.4774 22.3679 48.5526 22.983 48.7032 23.4858C48.8566 23.9858 49.0739 24.3651 49.3552 24.6236C49.6364 24.8793 49.9745 25.0071 50.3694 25.0071ZM57.9082 17.2727V26H56.5872V18.5938H56.5361L54.448 19.9574V18.696L56.6256 17.2727H57.9082ZM63.1001 17.2727V26H61.7791V18.5938H61.7279L59.6399 19.9574V18.696L61.8174 17.2727H63.1001ZM68.0192 26.1449C67.346 26.142 66.7707 25.9645 66.2934 25.6122C65.8161 25.2599 65.4511 24.7472 65.1982 24.0739C64.9454 23.4006 64.819 22.5895 64.819 21.6406C64.819 20.6946 64.9454 19.8864 65.1982 19.2159C65.4539 18.5455 65.8204 18.0341 66.2977 17.6818C66.7778 17.3295 67.3516 17.1534 68.0192 17.1534C68.6869 17.1534 69.2593 17.331 69.7366 17.6861C70.2139 18.0384 70.5789 18.5497 70.8317 19.2202C71.0874 19.8878 71.2153 20.6946 71.2153 21.6406C71.2153 22.5923 71.0889 23.4048 70.836 24.0781C70.5832 24.7486 70.2181 25.2614 69.7408 25.6165C69.2636 25.9688 68.6897 26.1449 68.0192 26.1449ZM68.0192 25.0071C68.6102 25.0071 69.0718 24.7188 69.4042 24.142C69.7394 23.5653 69.907 22.7315 69.907 21.6406C69.907 20.9162 69.8303 20.304 69.6769 19.804C69.5264 19.3011 69.309 18.9205 69.0249 18.6619C68.7437 18.4006 68.4085 18.2699 68.0192 18.2699C67.4312 18.2699 66.9695 18.5597 66.6343 19.1392C66.2991 19.7187 66.13 20.5526 66.1272 21.6406C66.1272 22.3679 66.2025 22.983 66.3531 23.4858C66.5065 23.9858 66.7238 24.3651 67.005 24.6236C67.2863 24.8793 67.6244 25.0071 68.0192 25.0071ZM10.1506 36.2727V45H8.82955V37.5938H8.77841L6.69034 38.9574V37.696L8.8679 36.2727H10.1506ZM15.0697 45.1449C14.3964 45.142 13.8211 44.9645 13.3439 44.6122C12.8666 44.2599 12.5015 43.7472 12.2487 43.0739C11.9959 42.4006 11.8694 41.5895 11.8694 40.6406C11.8694 39.6946 11.9959 38.8864 12.2487 38.2159C12.5044 37.5455 12.8709 37.0341 13.3481 36.6818C13.8282 36.3295 14.4021 36.1534 15.0697 36.1534C15.7373 36.1534 16.3098 36.331 16.787 36.6861C17.2643 37.0384 17.6294 37.5497 17.8822 38.2202C18.1379 38.8878 18.2657 39.6946 18.2657 40.6406C18.2657 41.5923 18.1393 42.4048 17.8865 43.0781C17.6336 43.7486 17.2686 44.2614 16.7913 44.6165C16.314 44.9688 15.7402 45.1449 15.0697 45.1449ZM15.0697 44.0071C15.6606 44.0071 16.1223 43.7188 16.4547 43.142C16.7899 42.5653 16.9575 41.7315 16.9575 40.6406C16.9575 39.9162 16.8808 39.304 16.7274 38.804C16.5768 38.3011 16.3595 37.9205 16.0754 37.6619C15.7941 37.4006 15.4589 37.2699 15.0697 37.2699C14.4816 37.2699 14.02 37.5597 13.6848 38.1392C13.3495 38.7187 13.1805 39.5526 13.1777 40.6406C13.1777 41.3679 13.253 41.983 13.4035 42.4858C13.5569 42.9858 13.7743 43.3651 14.0555 43.6236C14.3368 43.8793 14.6748 44.0071 15.0697 44.0071ZM22.6085 36.2727V45H21.2875V37.5938H21.2364L19.1483 38.9574V37.696L21.3259 36.2727H22.6085ZM27.8004 36.2727V45H26.4794V37.5938H26.4283L24.3402 38.9574V37.696L26.5177 36.2727H27.8004ZM32.7196 45.1449C32.0463 45.142 31.471 44.9645 30.9937 44.6122C30.5164 44.2599 30.1514 43.7472 29.8985 43.0739C29.6457 42.4006 29.5193 41.5895 29.5193 40.6406C29.5193 39.6946 29.6457 38.8864 29.8985 38.2159C30.1542 37.5455 30.5207 37.0341 30.998 36.6818C31.4781 36.3295 32.0519 36.1534 32.7196 36.1534C33.3872 36.1534 33.9596 36.331 34.4369 36.6861C34.9142 37.0384 35.2792 37.5497 35.5321 38.2202C35.7877 38.8878 35.9156 39.6946 35.9156 40.6406C35.9156 41.5923 35.7892 42.4048 35.5363 43.0781C35.2835 43.7486 34.9184 44.2614 34.4412 44.6165C33.9639 44.9688 33.39 45.1449 32.7196 45.1449ZM32.7196 44.0071C33.3105 44.0071 33.7721 43.7188 34.1045 43.142C34.4397 42.5653 34.6073 41.7315 34.6073 40.6406C34.6073 39.9162 34.5306 39.304 34.3772 38.804C34.2267 38.3011 34.0093 37.9205 33.7252 37.6619C33.444 37.4006 33.1088 37.2699 32.7196 37.2699C32.1315 37.2699 31.6698 37.5597 31.3346 38.1392C30.9994 38.7187 30.8304 39.5526 30.8275 40.6406C30.8275 41.3679 30.9028 41.983 31.0534 42.4858C31.2068 42.9858 31.4241 43.3651 31.7054 43.6236C31.9866 43.8793 32.3247 44.0071 32.7196 44.0071ZM40.2584 36.2727V45H38.9374V37.5938H38.8862L36.7982 38.9574V37.696L38.9757 36.2727H40.2584ZM45.4503 36.2727V45H44.1292V37.5938H44.0781L41.99 38.9574V37.696L44.1676 36.2727H45.4503ZM50.3694 45.1449C49.6961 45.142 49.1208 44.9645 48.6436 44.6122C48.1663 44.2599 47.8012 43.7472 47.5484 43.0739C47.2955 42.4006 47.1691 41.5895 47.1691 40.6406C47.1691 39.6946 47.2955 38.8864 47.5484 38.2159C47.8041 37.5455 48.1705 37.0341 48.6478 36.6818C49.1279 36.3295 49.7018 36.1534 50.3694 36.1534C51.037 36.1534 51.6095 36.331 52.0867 36.6861C52.564 37.0384 52.9291 37.5497 53.1819 38.2202C53.4376 38.8878 53.5654 39.6946 53.5654 40.6406C53.5654 41.5923 53.439 42.4048 53.1862 43.0781C52.9333 43.7486 52.5683 44.2614 52.091 44.6165C51.6137 44.9688 51.0399 45.1449 50.3694 45.1449ZM50.3694 44.0071C50.9603 44.0071 51.422 43.7188 51.7543 43.142C52.0896 42.5653 52.2572 41.7315 52.2572 40.6406C52.2572 39.9162 52.1805 39.304 52.0271 38.804C51.8765 38.3011 51.6592 37.9205 51.3751 37.6619C51.0938 37.4006 50.7586 37.2699 50.3694 37.2699C49.7813 37.2699 49.3197 37.5597 48.9845 38.1392C48.6492 38.7187 48.4802 39.5526 48.4774 40.6406C48.4774 41.3679 48.5526 41.983 48.7032 42.4858C48.8566 42.9858 49.0739 43.3651 49.3552 43.6236C49.6364 43.8793 49.9745 44.0071 50.3694 44.0071ZM57.9082 36.2727V45H56.5872V37.5938H56.5361L54.448 38.9574V37.696L56.6256 36.2727H57.9082ZM63.1001 36.2727V45H61.7791V37.5938H61.7279L59.6399 38.9574V37.696L61.8174 36.2727H63.1001ZM68.0192 45.1449C67.346 45.142 66.7707 44.9645 66.2934 44.6122C65.8161 44.2599 65.4511 43.7472 65.1982 43.0739C64.9454 42.4006 64.819 41.5895 64.819 40.6406C64.819 39.6946 64.9454 38.8864 65.1982 38.2159C65.4539 37.5455 65.8204 37.0341 66.2977 36.6818C66.7778 36.3295 67.3516 36.1534 68.0192 36.1534C68.6869 36.1534 69.2593 36.331 69.7366 36.6861C70.2139 37.0384 70.5789 37.5497 70.8317 38.2202C71.0874 38.8878 71.2153 39.6946 71.2153 40.6406C71.2153 41.5923 71.0889 42.4048 70.836 43.0781C70.5832 43.7486 70.2181 44.2614 69.7408 44.6165C69.2636 44.9688 68.6897 45.1449 68.0192 45.1449ZM68.0192 44.0071C68.6102 44.0071 69.0718 43.7188 69.4042 43.142C69.7394 42.5653 69.907 41.7315 69.907 40.6406C69.907 39.9162 69.8303 39.304 69.6769 38.804C69.5264 38.3011 69.309 37.9205 69.0249 37.6619C68.7437 37.4006 68.4085 37.2699 68.0192 37.2699C67.4312 37.2699 66.9695 37.5597 66.6343 38.1392C66.2991 38.7187 66.13 39.5526 66.1272 40.6406C66.1272 41.3679 66.2025 41.983 66.3531 42.4858C66.5065 42.9858 66.7238 43.3651 67.005 43.6236C67.2863 43.8793 67.6244 44.0071 68.0192 44.0071ZM9.87784 64.1449C9.20455 64.142 8.62926 63.9645 8.15199 63.6122C7.67472 63.2599 7.30966 62.7472 7.05682 62.0739C6.80398 61.4006 6.67756 60.5895 6.67756 59.6406C6.67756 58.6946 6.80398 57.8864 7.05682 57.2159C7.3125 56.5455 7.67898 56.0341 8.15625 55.6818C8.63636 55.3295 9.21023 55.1534 9.87784 55.1534C10.5455 55.1534 11.1179 55.331 11.5952 55.6861C12.0724 56.0384 12.4375 56.5497 12.6903 57.2202C12.946 57.8878 13.0739 58.6946 13.0739 59.6406C13.0739 60.5923 12.9474 61.4048 12.6946 62.0781C12.4418 62.7486 12.0767 63.2614 11.5994 63.6165C11.1222 63.9688 10.5483 64.1449 9.87784 64.1449ZM9.87784 63.0071C10.4688 63.0071 10.9304 62.7188 11.2628 62.142C11.598 61.5653 11.7656 60.7315 11.7656 59.6406C11.7656 58.9162 11.6889 58.304 11.5355 57.804C11.3849 57.3011 11.1676 56.9205 10.8835 56.6619C10.6023 56.4006 10.267 56.2699 9.87784 56.2699C9.28977 56.2699 8.82813 56.5597 8.4929 57.1392C8.15767 57.7187 7.98864 58.5526 7.9858 59.6406C7.9858 60.3679 8.06108 60.983 8.21165 61.4858C8.36506 61.9858 8.58239 62.3651 8.86364 62.6236C9.14489 62.8793 9.48295 63.0071 9.87784 63.0071ZM17.4167 55.2727V64H16.0956V56.5938H16.0445L13.9564 57.9574V56.696L16.134 55.2727H17.4167ZM22.6085 55.2727V64H21.2875V56.5938H21.2364L19.1483 57.9574V56.696L21.3259 55.2727H22.6085ZM27.5277 64.1449C26.8544 64.142 26.2791 63.9645 25.8018 63.6122C25.3246 63.2599 24.9595 62.7472 24.7067 62.0739C24.4538 61.4006 24.3274 60.5895 24.3274 59.6406C24.3274 58.6946 24.4538 57.8864 24.7067 57.2159C24.9623 56.5455 25.3288 56.0341 25.8061 55.6818C26.2862 55.3295 26.8601 55.1534 27.5277 55.1534C28.1953 55.1534 28.7677 55.331 29.245 55.6861C29.7223 56.0384 30.0873 56.5497 30.3402 57.2202C30.5959 57.8878 30.7237 58.6946 30.7237 59.6406C30.7237 60.5923 30.5973 61.4048 30.3444 62.0781C30.0916 62.7486 29.7265 63.2614 29.2493 63.6165C28.772 63.9688 28.1981 64.1449 27.5277 64.1449ZM27.5277 63.0071C28.1186 63.0071 28.5802 62.7188 28.9126 62.142C29.2479 61.5653 29.4155 60.7315 29.4155 59.6406C29.4155 58.9162 29.3388 58.304 29.1854 57.804C29.0348 57.3011 28.8175 56.9205 28.5334 56.6619C28.2521 56.4006 27.9169 56.2699 27.5277 56.2699C26.9396 56.2699 26.478 56.5597 26.1427 57.1392C25.8075 57.7187 25.6385 58.5526 25.6356 59.6406C25.6356 60.3679 25.7109 60.983 25.8615 61.4858C26.0149 61.9858 26.2322 62.3651 26.5135 62.6236C26.7947 62.8793 27.1328 63.0071 27.5277 63.0071ZM35.0665 55.2727V64H33.7455V56.5938H33.6943L31.6063 57.9574V56.696L33.7838 55.2727H35.0665ZM40.2584 55.2727V64H38.9374V56.5938H38.8862L36.7982 57.9574V56.696L38.9757 55.2727H40.2584ZM45.1775 64.1449C44.5042 64.142 43.9289 63.9645 43.4517 63.6122C42.9744 63.2599 42.6093 62.7472 42.3565 62.0739C42.1037 61.4006 41.9772 60.5895 41.9772 59.6406C41.9772 58.6946 42.1037 57.8864 42.3565 57.2159C42.6122 56.5455 42.9787 56.0341 43.4559 55.6818C43.9361 55.3295 44.5099 55.1534 45.1775 55.1534C45.8451 55.1534 46.4176 55.331 46.8949 55.6861C47.3721 56.0384 47.7372 56.5497 47.99 57.2202C48.2457 57.8878 48.3735 58.6946 48.3735 59.6406C48.3735 60.5923 48.2471 61.4048 47.9943 62.0781C47.7414 62.7486 47.3764 63.2614 46.8991 63.6165C46.4218 63.9688 45.848 64.1449 45.1775 64.1449ZM45.1775 63.0071C45.7684 63.0071 46.2301 62.7188 46.5625 62.142C46.8977 61.5653 47.0653 60.7315 47.0653 59.6406C47.0653 58.9162 46.9886 58.304 46.8352 57.804C46.6846 57.3011 46.4673 56.9205 46.1832 56.6619C45.902 56.4006 45.5667 56.2699 45.1775 56.2699C44.5895 56.2699 44.1278 56.5597 43.7926 57.1392C43.4574 57.7187 43.2883 58.5526 43.2855 59.6406C43.2855 60.3679 43.3608 60.983 43.5113 61.4858C43.6647 61.9858 43.8821 62.3651 44.1633 62.6236C44.4446 62.8793 44.7826 63.0071 45.1775 63.0071ZM52.7163 55.2727V64H51.3953V56.5938H51.3442L49.2561 57.9574V56.696L51.4337 55.2727H52.7163ZM57.9082 55.2727V64H56.5872V56.5938H56.5361L54.448 57.9574V56.696L56.6256 55.2727H57.9082ZM62.8274 64.1449C62.1541 64.142 61.5788 63.9645 61.1015 63.6122C60.6242 63.2599 60.2592 62.7472 60.0063 62.0739C59.7535 61.4006 59.6271 60.5895 59.6271 59.6406C59.6271 58.6946 59.7535 57.8864 60.0063 57.2159C60.262 56.5455 60.6285 56.0341 61.1058 55.6818C61.5859 55.3295 62.1598 55.1534 62.8274 55.1534C63.495 55.1534 64.0674 55.331 64.5447 55.6861C65.022 56.0384 65.387 56.5497 65.6399 57.2202C65.8956 57.8878 66.0234 58.6946 66.0234 59.6406C66.0234 60.5923 65.897 61.4048 65.6441 62.0781C65.3913 62.7486 65.0262 63.2614 64.549 63.6165C64.0717 63.9688 63.4978 64.1449 62.8274 64.1449ZM62.8274 63.0071C63.4183 63.0071 63.8799 62.7188 64.2123 62.142C64.5475 61.5653 64.7152 60.7315 64.7152 59.6406C64.7152 58.9162 64.6385 58.304 64.485 57.804C64.3345 57.3011 64.1171 56.9205 63.8331 56.6619C63.5518 56.4006 63.2166 56.2699 62.8274 56.2699C62.2393 56.2699 61.7777 56.5597 61.4424 57.1392C61.1072 57.7187 60.9382 58.5526 60.9353 59.6406C60.9353 60.3679 61.0106 60.983 61.1612 61.4858C61.3146 61.9858 61.5319 62.3651 61.8132 62.6236C62.0944 62.8793 62.4325 63.0071 62.8274 63.0071ZM70.3662 55.2727V64H69.0452V56.5938H68.994L66.906 57.9574V56.696L69.0835 55.2727H70.3662Z" fill="#00BD35"/>
<defs>
<filter id="filter0_i_19_6320" x="6" y="6" width="68" height="70" filterUnits="userSpaceOnUse" color-interpolation-filters="sRGB">
<feFlood flood-opacity="0" result="BackgroundImageFix"/>
<feBlend mode="normal" in="SourceGraphic" in2="BackgroundImageFix" result="shape"/>
<feColorMatrix in="SourceAlpha" type="matrix" values="0 0 0 0 0 0 0 0 0 0 0 0 0 0 0 0 0 0 127 0" result="hardAlpha"/>
<feOffset dy="2"/>
<feGaussianBlur stdDeviation="2.5"/>
<feComposite in2="hardAlpha" operator="arithmetic" k2="-1" k3="1"/>
<feColorMatrix type="matrix" values="0 0 0 0 0 0 0 0 0 0 0 0 0 0 0 0 0 0 0.12 0"/>
<feBlend mode="normal" in2="shape" result="effect1_innerShadow_19_6320"/>
</filter>
<linearGradient id="paint0_linear_19_6320" x1="21" y1="6" x2="40" y2="74" gradientUnits="userSpaceOnUse">
<stop stop-color="#5DFF8B" stop-opacity="0.6"/>
<stop offset="1" stop-color="#00FF47"/>
</linearGradient>
</defs>
</svg>
