<svg width="80" height="80" viewBox="0 0 80 80" fill="none" xmlns="http://www.w3.org/2000/svg">
<rect x="3" y="3" width="74" height="74" rx="17" fill="#FFB64A" stroke="white" stroke-width="6"/>
<g filter="url(#filter0_i_19_6374)">
<rect x="6" y="6" width="68" height="68" rx="14" fill="url(#paint0_linear_19_6374)" fill-opacity="0.41"/>
</g>
<line x1="15" y1="53" x2="63.0104" y2="53" stroke="white" stroke-width="2"/>
<circle cx="18" cy="53" r="3" fill="white"/>
<circle cx="40" cy="53" r="3" fill="white"/>
<circle cx="62" cy="53" r="3" fill="white"/>
<path fill-rule="evenodd" clip-rule="evenodd" d="M34.1153 31.2617L33.7961 28.2996C33.7556 27.9243 33.7556 27.5456 33.7961 27.1703L33.8188 26.9591C34.0603 24.7183 35.7689 22.9454 37.9407 22.6819C38.3055 22.6377 38.6741 22.6377 39.0389 22.6819C41.2107 22.9454 42.9193 24.7183 43.1608 26.9591L43.1836 27.1703C43.224 27.5456 43.224 27.9243 43.1836 28.2996L42.9026 30.9066C42.8828 31.0908 42.7458 31.2375 42.5697 31.275C41.5741 31.4865 40.6558 31.9159 39.8636 32.5129C39.7895 32.5687 39.6997 32.5987 39.6079 32.5962C38.0414 32.552 36.473 32.6007 34.9106 32.7421L33.7762 32.8448C33.2514 32.8923 32.8267 33.3046 32.7492 33.8418C32.4169 36.1428 32.4169 38.4818 32.7492 40.7828C32.8267 41.32 33.2514 41.7323 33.7762 41.7798L34.9106 41.8825C35.8567 41.9681 36.8049 42.0198 37.7536 42.0374C37.8925 42.04 38.0198 42.1163 38.0949 42.2369C38.3137 42.5882 38.5611 42.9186 38.8339 43.2247C38.9552 43.3608 38.8669 43.5894 38.6876 43.5902C37.3837 43.5965 36.0796 43.5408 34.7794 43.423L33.6449 43.3203C32.4292 43.2103 31.4452 42.2551 31.2655 41.0105C30.9115 38.5586 30.9115 36.0661 31.2655 33.6141C31.4452 32.3695 32.4292 31.4143 33.6449 31.3043L34.1153 31.2617ZM38.116 24.2178C38.3643 24.1877 38.6153 24.1877 38.8637 24.2178C40.3423 24.3972 41.5056 25.6043 41.67 27.1299L41.6928 27.3411C41.721 27.6029 41.721 27.867 41.6928 28.1288L41.3688 31.1348C39.4517 31.0003 37.5279 31.0003 35.6108 31.1348L35.2869 28.1288C35.2587 27.867 35.2587 27.6029 35.2869 27.3411L35.3096 27.1299C35.4741 25.6043 36.6373 24.3972 38.116 24.2178Z" fill="white"/>
<path d="M44.7398 36.7968C44.7398 36.3698 44.404 36.0236 43.9898 36.0236C43.5756 36.0236 43.2398 36.3698 43.2398 36.7968V38.6245C43.2398 38.8719 43.3546 39.1043 43.5487 39.2498L44.5487 39.9996C44.8837 40.2508 45.3527 40.1745 45.5964 39.8291C45.84 39.4837 45.7659 39.0001 45.431 38.7489L44.7398 38.2307V36.7968Z" fill="white"/>
<path fill-rule="evenodd" clip-rule="evenodd" d="M43.9898 44.0138C47.0274 44.0138 49.4898 41.475 49.4898 38.3433C49.4898 35.2116 47.0274 32.6728 43.9898 32.6728C40.9523 32.6728 38.4898 35.2116 38.4898 38.3433C38.4898 41.475 40.9523 44.0138 43.9898 44.0138ZM43.9898 42.4673C46.199 42.4673 47.9898 40.6209 47.9898 38.3433C47.9898 36.0657 46.199 34.2193 43.9898 34.2193C41.7807 34.2193 39.9898 36.0657 39.9898 38.3433C39.9898 40.6209 41.7807 42.4673 43.9898 42.4673Z" fill="white"/>
<defs>
<filter id="filter0_i_19_6374" x="6" y="6" width="68" height="70" filterUnits="userSpaceOnUse" color-interpolation-filters="sRGB">
<feFlood flood-opacity="0" result="BackgroundImageFix"/>
<feBlend mode="normal" in="SourceGraphic" in2="BackgroundImageFix" result="shape"/>
<feColorMatrix in="SourceAlpha" type="matrix" values="0 0 0 0 0 0 0 0 0 0 0 0 0 0 0 0 0 0 127 0" result="hardAlpha"/>
<feOffset dy="2"/>
<feGaussianBlur stdDeviation="2.5"/>
<feComposite in2="hardAlpha" operator="arithmetic" k2="-1" k3="1"/>
<feColorMatrix type="matrix" values="0 0 0 0 0 0 0 0 0 0 0 0 0 0 0 0 0 0 0.12 0"/>
<feBlend mode="normal" in2="shape" result="effect1_innerShadow_19_6374"/>
</filter>
<linearGradient id="paint0_linear_19_6374" x1="21" y1="6" x2="40" y2="74" gradientUnits="userSpaceOnUse">
<stop stop-color="#FFCD82"/>
<stop offset="1" stop-color="#FF0000"/>
</linearGradient>
</defs>
</svg>
