<svg width="80" height="80" viewBox="0 0 80 80" fill="none" xmlns="http://www.w3.org/2000/svg">
<rect x="3" y="3" width="74" height="74" rx="17" fill="#FFB64A" stroke="white" stroke-width="6"/>
<g filter="url(#filter0_i_19_6325)">
<rect x="6" y="6" width="68" height="68" rx="14" fill="url(#paint0_linear_19_6325)" fill-opacity="0.41"/>
</g>
<path fill-rule="evenodd" clip-rule="evenodd" d="M22.6244 41.5215L26.4308 30.9172C26.4498 30.8645 26.4723 30.813 26.4983 30.7633C27.1341 29.5477 28.2756 28.6159 29.4933 27.9959C30.7204 27.3712 32.1452 27 33.4884 27C35.411 27 37.3225 27.7593 38.7578 28.9636C39.218 29.3497 39.6395 29.791 40 30.2788C40.3605 29.791 40.782 29.3497 41.2422 28.9636C42.6775 27.7593 44.589 27 46.5116 27C47.8548 27 49.2796 27.3712 50.5067 27.9959C51.7244 28.6159 52.866 29.5477 53.5017 30.7633C53.5277 30.813 53.5502 30.8645 53.5692 30.9172L57.3756 41.5214C57.7784 42.5074 58 43.5841 58 44.7119C58 49.4385 54.1059 53.2703 49.3023 53.2703C44.9252 53.2703 41.3033 50.0887 40.6947 45.9476H39.3054C38.6967 50.0887 35.0748 53.2703 30.6977 53.2703C25.8954 53.2703 22.0022 49.4407 22 44.7159M26.909 37.0058L28.7677 31.8277C29.1048 31.2293 29.7624 30.6416 30.6476 30.1909C31.5561 29.7284 32.5878 29.4714 33.4884 29.4714C34.7624 29.4714 36.1067 29.9871 37.1281 30.8441C38.1473 31.6993 38.7442 32.8026 38.7442 33.9312V41.4568C37.4425 38.3445 34.3301 36.1534 30.6977 36.1534C29.3396 36.1534 28.0542 36.4597 26.909 37.0058ZM36.758 43.4851C36.8404 43.8814 36.8837 44.2916 36.8837 44.7119C36.8837 48.0736 34.1141 50.7989 30.6977 50.7989C27.2812 50.7989 24.5116 48.0736 24.5116 44.7118C24.5116 42.2002 26.0576 40.0439 28.2642 39.1139C28.3101 39.0945 28.3562 39.0757 28.4026 39.0575C29.1125 38.7783 29.887 38.6248 30.6977 38.6248C32.8329 38.6248 34.7154 39.6893 35.8271 41.3083C36.2718 41.956 36.5932 42.6925 36.758 43.4851ZM41.2558 41.4568C41.5812 40.6787 42.0198 39.9582 42.5514 39.3151C44.1462 37.3859 46.578 36.1534 49.3023 36.1534C49.3402 36.1534 49.378 36.1537 49.4157 36.1541C50.2244 36.1643 51.0064 36.283 51.7473 36.4962C52.2125 36.63 52.6616 36.8011 53.091 37.0058L51.2323 31.8277C50.8952 31.2293 50.2376 30.6416 49.3524 30.1909C48.4439 29.7284 47.4122 29.4714 46.5116 29.4714C45.2376 29.4714 43.8933 29.9871 42.8719 30.8441C41.8527 31.6993 41.2558 32.8026 41.2558 33.9312V41.4568ZM43.1163 44.7118C43.1163 48.0736 45.8859 50.7989 49.3023 50.7989C52.7176 50.7989 55.4864 48.0755 55.4884 44.7155L55.4884 44.7119C55.4884 44.6613 55.4877 44.6108 55.4865 44.5605C55.485 44.4998 55.4826 44.4394 55.4793 44.3791C55.348 41.9805 53.8055 39.951 51.6543 39.0802C50.929 38.7866 50.1347 38.6248 49.3023 38.6248C47.167 38.6248 45.2844 39.6894 44.1728 41.3085C43.5058 42.28 43.1163 43.4512 43.1163 44.7118Z" fill="white"/>
<path d="M22.6244 41.5215C22.2216 42.5074 22 43.5842 22 44.7118Z" fill="white"/>
<defs>
<filter id="filter0_i_19_6325" x="6" y="6" width="68" height="70" filterUnits="userSpaceOnUse" color-interpolation-filters="sRGB">
<feFlood flood-opacity="0" result="BackgroundImageFix"/>
<feBlend mode="normal" in="SourceGraphic" in2="BackgroundImageFix" result="shape"/>
<feColorMatrix in="SourceAlpha" type="matrix" values="0 0 0 0 0 0 0 0 0 0 0 0 0 0 0 0 0 0 127 0" result="hardAlpha"/>
<feOffset dy="2"/>
<feGaussianBlur stdDeviation="2.5"/>
<feComposite in2="hardAlpha" operator="arithmetic" k2="-1" k3="1"/>
<feColorMatrix type="matrix" values="0 0 0 0 0 0 0 0 0 0 0 0 0 0 0 0 0 0 0.12 0"/>
<feBlend mode="normal" in2="shape" result="effect1_innerShadow_19_6325"/>
</filter>
<linearGradient id="paint0_linear_19_6325" x1="21" y1="6" x2="40" y2="74" gradientUnits="userSpaceOnUse">
<stop stop-color="#FFCD82"/>
<stop offset="1" stop-color="#FF0000"/>
</linearGradient>
</defs>
</svg>
