<svg width="80" height="80" viewBox="0 0 80 80" fill="none" xmlns="http://www.w3.org/2000/svg">
<rect x="3" y="3" width="74" height="74" rx="17" fill="url(#paint0_linear_19_6386)" fill-opacity="0.7" stroke="white" stroke-width="6"/>
<path fill-rule="evenodd" clip-rule="evenodd" d="M41.186 29.513C40.6102 29.1555 39.8898 29.1555 39.314 29.513L38.5645 29.9783C36.5595 31.223 34.3086 31.9868 31.9785 32.2132L31.5063 32.259C31.3199 32.2772 31.1774 32.4385 31.1774 32.6315V35.0918C31.1774 38.8446 32.6552 42.4366 35.2722 45.0449L39.9978 49.7547C40.1384 49.8949 40.3616 49.8949 40.5022 49.7547L45.2278 45.0449C47.8448 42.4366 49.3226 38.8446 49.3226 35.0918V32.6315C49.3226 32.4385 49.1801 32.2772 48.9937 32.259L48.5215 32.2132C46.1914 31.9868 43.9405 31.223 41.9355 29.9783L41.186 29.513ZM38.1908 27.5899C39.4576 26.8034 41.0424 26.8034 42.3092 27.5899L43.0587 28.0551C44.784 29.1262 46.7208 29.7834 48.7258 29.9782L49.198 30.024C50.5029 30.1508 51.5 31.2803 51.5 32.6315V35.0918C51.5 39.4531 49.7826 43.6276 46.7412 46.6589L42.0156 51.3687C41.031 52.3501 39.469 52.3501 38.4844 51.3687L33.7588 46.6589C30.7174 43.6276 29 39.4531 29 35.0918V32.6315C29 31.2803 29.9972 30.1508 31.302 30.024L31.7742 29.9782C33.7792 29.7834 35.716 29.1262 37.4413 28.0551L38.1908 27.5899Z" fill="white"/>
<defs>
<linearGradient id="paint0_linear_19_6386" x1="40" y1="0" x2="40" y2="80" gradientUnits="userSpaceOnUse">
<stop stop-color="#FF0000"/>
<stop offset="1" stop-color="#640000"/>
</linearGradient>
</defs>
</svg>
