<svg width="233" height="30" viewBox="0 0 218 28" fill="none" xmlns="http://www.w3.org/2000/svg"><g clip-path="url(#clip0_508_1340)"><path d="M15.3936 19.093L25.3554 1.47637C25.6963 0.862753 26.2485 0.393353 26.9077 0.161481C27.567 -0.0703919 28.291 -0.0505979 28.939 0.218035L13.5905 27.3499C13.3031 27.1181 13.058 26.8353 12.8721 26.5129L0.394418 4.48788C0.135229 4.03545 0 3.52363 0 3.00333C0 2.48303 0.135229 1.97122 0.394418 1.51878C0.647972 1.06918 1.01422 0.695918 1.45653 0.432941C1.89884 0.172791 2.40313 0.0342335 2.91869 0.0314058H18.2418C18.9433 0.0370612 19.6166 0.294383 20.1463 0.758128C20.6731 1.22187 21.0168 1.86094 21.1154 2.55938H2.91869C2.84262 2.55938 2.76938 2.582 2.70176 2.62159C2.63696 2.66118 2.58062 2.7149 2.54118 2.77994C2.51019 2.85063 2.4961 2.92698 2.4961 3.00333C2.4961 3.07968 2.513 3.15603 2.54118 3.22672L13.1257 21.884C13.1623 21.9518 13.2186 22.0084 13.2834 22.0451C13.351 22.0847 13.4243 22.1045 13.5004 22.1045C13.5764 22.1045 13.6469 22.0791 13.7116 22.0423C13.7764 22.0027 13.83 21.949 13.8666 21.884L15.3907 19.0902L15.3936 19.093ZM21.0873 3.41335H3.62583L13.4553 20.75L14.8921 18.2221L7.93625 5.9696H18.2221C18.9264 5.95263 19.6026 5.684 20.1294 5.21177C20.6534 4.73955 20.9943 4.092 21.0873 3.39073V3.41618V3.41335ZM29.6743 0.647847L14.3258 27.7797C14.9738 28.0512 15.6978 28.0738 16.3627 27.842C17.0248 27.6101 17.5798 27.1379 17.9178 26.5214L30.3927 4.49636C30.7449 3.87144 30.8632 3.14472 30.7336 2.44062C30.6012 1.73652 30.2265 1.10028 29.6743 0.647847Z" fill="#E64537"></path><path d="M45.6904 18.7478C45.0678 18.7478 44.4508 18.6262 43.8761 18.3859C43.3155 18.1596 42.8112 17.8203 42.3858 17.3905C41.9519 16.9579 41.6082 16.4432 41.3772 15.8749C40.887 14.6731 40.887 13.3243 41.3772 12.1225C41.611 11.5598 41.9547 11.0451 42.3858 10.6153C42.8112 10.1855 43.3183 9.84334 43.8761 9.61147C44.4508 9.37394 45.0678 9.25518 45.6904 9.25801C46.3299 9.25235 46.9638 9.37111 47.5554 9.61147C48.1133 9.82638 48.6091 10.1714 49.0092 10.6153L48.2457 11.3731C48.0513 11.1356 47.8175 10.932 47.5526 10.7737C47.2794 10.6125 46.9835 10.4909 46.6765 10.4117C46.3581 10.3241 46.0257 10.2788 45.696 10.2788C45.2227 10.276 44.7551 10.3693 44.3212 10.5531C43.8845 10.7171 43.4873 10.9716 43.1549 11.3024C42.8196 11.6333 42.5548 12.0292 42.3745 12.4646C42.1773 12.951 42.0787 13.4713 42.0843 13.9973C42.0759 14.5232 42.1745 15.0435 42.3745 15.5299C42.5661 15.971 42.8393 16.3725 43.1802 16.709C43.5099 17.0314 43.9014 17.2859 44.3269 17.4584C44.7635 17.628 45.2256 17.7129 45.6932 17.7129C46.0877 17.7129 46.4793 17.6591 46.8596 17.546C47.2343 17.4414 47.5864 17.2604 47.8935 17.0172C48.2147 16.7628 48.4795 16.4404 48.6655 16.0756C48.8796 15.6515 49.0035 15.1849 49.0345 14.7098H45.7045V13.706H50.0854V14.3592C50.091 14.9615 49.9811 15.561 49.7614 16.1209C49.5642 16.6355 49.2655 17.1049 48.8852 17.5036C48.4795 17.8854 48.0034 18.1851 47.485 18.3859C46.9131 18.6206 46.3046 18.7422 45.6876 18.7478H45.6904Z" fill="black"></path><path d="M69.5021 9.46167H68.3189L64.8931 18.5443H66.0679L66.944 16.0418H70.8262L71.7447 18.5443H72.9195L69.5021 9.46167ZM67.3216 15.0294L68.5133 11.7521L68.8739 10.7737L69.2317 11.7521L70.4318 15.0294H67.3216Z" fill="black"></path><path d="M84.3096 11.6416C83.9433 10.9714 83.3968 10.42 82.7319 10.0467C81.9853 9.64239 81.1458 9.44445 80.2978 9.46424H77.5735V18.5469H80.2978C81.1458 18.5695 81.9881 18.3659 82.7319 17.9559C83.394 17.5826 83.9405 17.0312 84.3096 16.361C84.673 15.6287 84.8618 14.8199 84.8618 13.9999C84.8618 13.1799 84.673 12.3711 84.3096 11.6388V11.6416ZM83.3461 15.9058C83.07 16.4176 82.6502 16.8389 82.1375 17.1132C81.5656 17.396 80.9345 17.5345 80.2978 17.5176H78.6412V10.4709H80.2978C80.9373 10.4568 81.5684 10.601 82.1375 10.8951C82.6474 11.1609 83.07 11.5765 83.3461 12.0855C83.6475 12.6737 83.794 13.3269 83.7743 13.9886C83.7996 14.6559 83.6503 15.3176 83.3461 15.9086V15.9058Z" fill="black"></path><path d="M90.9498 9.46167H89.8821V18.5443H90.9498V9.46167Z" fill="black"></path><path d="M96.407 18.5443V9.46167H101.63V10.4825H97.486V13.494H101.227V14.5063H97.486V17.5093H101.63V18.5386H96.407V18.5443Z" fill="black"></path><path d="M106.8 18.5443V9.46167H108.113L112.643 16.695H112.696L112.643 14.9418V9.46167H113.711V18.5443H112.606L107.876 10.9688H107.823L107.876 12.722V18.5443H106.797H106.8Z" fill="black"></path><path d="M121.027 18.5441V10.4852H118.494V9.46436H124.619V10.4852H122.095V18.5441H121.027Z" fill="black"></path><path d="M137.638 18.5443L134.432 9.46167H135.623L137.857 16.0418L138.156 16.941H138.21L138.525 16.0418L140.855 9.46167H142.047L138.734 18.5443H137.638Z" fill="black"></path><path d="M146.67 18.5443V9.46167H151.89V10.4825H147.738V13.494H151.487V14.5063H147.738V17.5093H151.89V18.5386H146.67V18.5443Z" fill="black"></path><path d="M157.052 18.5443V9.46167H158.367L162.897 16.695H162.951L162.897 14.9418V9.46167H163.965V18.5443H162.852L158.131 10.9688H158.077L158.131 12.722V18.5443H157.052Z" fill="black"></path><path d="M171.281 18.5441V10.4852H168.74V9.46436H174.873V10.4852H172.349V18.5441H171.281Z" fill="black"></path><path d="M182.759 18.7477C182.145 18.7675 181.536 18.612 181.007 18.2981C180.508 17.9984 180.102 17.5657 179.832 17.0483C179.544 16.4686 179.398 15.8295 179.412 15.182V9.46436H180.491V15.2329C180.483 15.6712 180.567 16.1066 180.736 16.511C180.9 16.8673 181.156 17.1727 181.48 17.3933C181.86 17.6166 182.294 17.7241 182.734 17.71C183.17 17.7269 183.601 17.6166 183.979 17.3933C184.314 17.184 184.582 16.8758 184.742 16.511C184.914 16.1066 185.002 15.674 184.996 15.2329V9.46436H186.064V15.182C186.078 15.8267 185.94 16.4686 185.661 17.0483C185.41 17.5686 185.016 18.0012 184.523 18.2981C183.987 18.6063 183.379 18.7619 182.762 18.7477H182.759Z" fill="black"></path><path d="M202.164 18.5443V9.46167H207.396V10.4825H203.243V13.494H206.985V14.5063H203.243V17.5093H207.396V18.5386H202.164V18.5443Z" fill="black"></path><path d="M215.079 18.7476C214.355 18.7448 213.656 18.4988 213.084 18.0548C212.512 17.6081 212.106 16.986 211.923 16.2819L212.949 15.869C213.081 16.3723 213.352 16.8304 213.729 17.1896C214.101 17.5402 214.594 17.7296 215.104 17.7183C215.405 17.7155 215.701 17.6561 215.98 17.543C216.253 17.4299 216.493 17.2405 216.662 16.9973C216.845 16.7428 216.938 16.4317 216.924 16.115C216.93 15.8379 216.851 15.5693 216.696 15.3402C216.527 15.1027 216.301 14.9132 216.039 14.786C215.696 14.5937 215.335 14.4297 214.96 14.3025L214.391 14.0989C214.129 14.0027 213.873 13.8953 213.619 13.7737C213.369 13.6351 213.129 13.4739 212.909 13.2901C212.698 13.0979 212.529 12.8632 212.411 12.603C212.273 12.3061 212.208 11.9809 212.219 11.6529C212.214 11.2259 212.337 10.8046 212.569 10.4455C212.814 10.075 213.149 9.77247 213.54 9.56322C213.983 9.337 214.473 9.22389 214.969 9.23803C215.459 9.22106 215.944 9.33134 216.38 9.55473C216.721 9.73571 217.017 9.98455 217.256 10.2871C217.454 10.5162 217.609 10.7791 217.713 11.0619L216.716 11.4945C216.651 11.2966 216.555 11.1128 216.425 10.9488C216.27 10.748 216.073 10.5812 215.848 10.4653C215.577 10.3267 215.276 10.256 214.972 10.2617C214.67 10.256 214.372 10.3154 214.095 10.437C213.856 10.5557 213.645 10.7282 213.481 10.9403C213.332 11.1439 213.25 11.3927 213.253 11.6444C213.253 11.8169 213.293 11.9894 213.371 12.1421C213.45 12.2948 213.566 12.4277 213.709 12.5267C214.087 12.7783 214.496 12.9763 214.927 13.1176L215.521 13.3212C215.791 13.4174 216.065 13.5333 216.344 13.6634C216.631 13.7991 216.896 13.9716 217.132 14.1837C217.383 14.4014 217.586 14.6672 217.727 14.967C217.885 15.3148 217.964 15.6937 217.955 16.0783C217.964 16.4939 217.868 16.9068 217.676 17.2772C217.507 17.6024 217.268 17.8823 216.975 18.0973C216.682 18.3065 216.352 18.4592 216.003 18.5469C215.704 18.66 215.391 18.7307 215.073 18.7589L215.079 18.7476Z" fill="black"></path><path d="M58.5063 14.7664C58.6866 14.724 58.8613 14.6702 59.0331 14.5996C59.3881 14.4638 59.7093 14.2489 59.9713 13.9746C60.2164 13.723 60.4052 13.4232 60.5235 13.0924C60.6362 12.7842 60.6953 12.459 60.6981 12.131C60.7066 11.6389 60.5742 11.1554 60.3122 10.7397C60.0614 10.3354 59.7093 10.0073 59.2867 9.78961C58.8613 9.56057 58.3852 9.4418 57.9034 9.44746H54.8467V18.5301H55.9144V10.4711H57.9119C58.2218 10.4711 58.526 10.5587 58.788 10.7256C59.0275 10.8839 59.2275 11.0988 59.3656 11.3505C59.5008 11.588 59.5741 11.8595 59.5769 12.1338C59.5853 12.4448 59.5008 12.7531 59.3318 13.016C59.1656 13.2705 58.9374 13.4769 58.6697 13.6183C58.4021 13.7597 58.1034 13.8304 57.7992 13.8276H56.6328L59.7515 18.5414H61.0137V18.4877L58.5091 14.7692L58.5063 14.7664Z" fill="black"></path><path d="M194.997 14.7664C195.177 14.724 195.352 14.6702 195.521 14.5996C195.876 14.4638 196.197 14.2489 196.459 13.9746C196.704 13.723 196.893 13.4232 197.012 13.0924C197.124 12.7842 197.183 12.459 197.186 12.131C197.195 11.6389 197.062 11.1554 196.8 10.7397C196.549 10.3354 196.194 10.0073 195.775 9.78961C195.349 9.56057 194.873 9.4418 194.391 9.44746H191.335V18.5301H192.402V10.4711H194.4C194.71 10.4711 195.014 10.5587 195.276 10.7256C195.516 10.8839 195.716 11.0988 195.854 11.3505C195.989 11.588 196.062 11.8595 196.065 12.1338C196.073 12.4448 195.989 12.7531 195.82 13.016C195.654 13.2705 195.425 13.4769 195.158 13.6183C194.89 13.7597 194.591 13.8304 194.287 13.8276H193.121L193.786 14.8314L196.248 18.5386H197.502V18.4848L194.997 14.7664Z" fill="black"></path></g><defs><clipPath id="clip0_508_1340"><rect width="217.961" height="28" fill="white"></rect></clipPath></defs></svg>